{
  "accessors": [
    {
      "bufferView": 2,
      "componentType": 5126,
      "count": 18147,
      "max": [
        12.596137046813965,
        -2.3744711875915527,
        1.8965644836425781
      ],
      "min": [
        -12.65791130065918,
        -19.92284393310547,
        -0.5295982360839844
      ],
      "type": "VEC3"
    },
    {
      "bufferView": 2,
      "byteOffset": 217764,
      "componentType": 5126,
      "count": 18147,
      "max": [
        0.9999991655349731,
        0.9999992251396179,
        1.0
      ],
      "min": [
        -0.9999992847442627,
        -0.9999991655349731,
        -0.9999988675117493
      ],
      "type": "VEC3"
    },
    {
      "bufferView": 1,
      "componentType": 5126,
      "count": 18147,
      "max": [
        0.999459981918335,
        0.9997559785842896
      ],
      "min": [
        0.00024399999529123306,
        0.00037200000951997936
      ],
      "type": "VEC2"
    },
    {
      "bufferView": 0,
      "componentType": 5125,
      "count": 60000,
      "type": "SCALAR"
    }
  ],
  "asset": {
    "extras": {
      "author": "theovasilis (https://sketchfab.com/theovasilis)",
      "license": "CC-BY-4.0 (http://creativecommons.org/licenses/by/4.0/)",
      "source": "https://sketchfab.com/3d-models/brick-wall-united-kingdom-01d2b161591a4b0b899cdcbe7d206d6d",
      "title": "Brick wall United Kingdom"
    },
    "generator": "Sketchfab-12.68.0",
    "version": "2.0"
  },
  "bufferViews": [
    {
      "buffer": 0,
      "byteLength": 240000,
      "name": "floatBufferViews",
      "target": 34963
    },
    {
      "buffer": 0,
      "byteLength": 145176,
      "byteOffset": 240000,
      "byteStride": 8,
      "name": "floatBufferViews",
      "target": 34962
    },
    {
      "buffer": 0,
      "byteLength": 435528,
      "byteOffset": 385176,
      "byteStride": 12,
      "name": "floatBufferViews",
      "target": 34962
    }
  ],
  "buffers": [
    {
      "byteLength": 820704,
      "uri": "scene.bin"
    }
  ],
  "images": [
    {
      "uri": "textures/wall2_Material_u1_v1_baseColor.jpeg"
    },
    {
      "uri": "textures/wall2_Material_u1_v1_metallicRoughness.png"
    }
  ],
  "materials": [
    {
      "doubleSided": true,
      "name": "wall2_Material_u1_v1",
      "pbrMetallicRoughness": {
        "baseColorTexture": {
          "index": 0
        },
        "metallicFactor": 0.0,
        "metallicRoughnessTexture": {
          "index": 1
        }
      }
    }
  ],
  "meshes": [
    {
      "name": "Object_0",
      "primitives": [
        {
          "attributes": {
            "NORMAL": 1,
            "POSITION": 0,
            "TEXCOORD_0": 2
          },
          "indices": 3,
          "material": 0,
          "mode": 4
        }
      ]
    }
  ],
  "nodes": [
    {
      "children": [
        1
      ],
      "matrix": [
        1.0,
        0.0,
        0.0,
        0.0,
        0.0,
        -0.9997249841690063,
        0.023450532928108947,
        0.0,
        0.0,
        -0.023450532928108947,
        -0.9997249841690063,
        0.0,
        0.0,
        -10.446039199829105,
        12.093353271484373,
        1.0
      ],
      "name": "Sketchfab_model"
    },
    {
      "children": [
        2
      ],
      "name": "wall2.obj.cleaner.materialmerger.gles"
    },
    {
      "mesh": 0,
      "name": "Object_2"
    }
  ],
  "samplers": [
    {
      "magFilter": 9729,
      "minFilter": 9987,
      "wrapS": 10497,
      "wrapT": 10497
    }
  ],
  "scene": 0,
  "scenes": [
    {
      "name": "Sketchfab_Scene",
      "nodes": [
        0
      ]
    }
  ],
  "textures": [
    {
      "sampler": 0,
      "source": 0
    },
    {
      "sampler": 0,
      "source": 1
    }
  ]
}
