{
  "accessors": [
    {
      "bufferView": 2,
      "componentType": 5126,
      "count": 30146,
      "max": [
        0.9950748682022095,
        1.7219101190567017,
        0.03516416996717453
      ],
      "min": [
        -0.18870064616203308,
        -0.10000000149011612,
        -0.598874032497406
      ],
      "type": "VEC3"
    },
    {
      "bufferView": 2,
      "byteOffset": 361752,
      "componentType": 5126,
      "count": 30146,
      "max": [
        1.0,
        1.0,
        1.0
      ],
      "min": [
        -1.0,
        -1.0,
        -1.0
      ],
      "type": "VEC3"
    },
    {
      "bufferView": 1,
      "componentType": 5126,
      "count": 30146,
      "max": [
        0.0,
        1.0
      ],
      "min": [
        0.0,
        1.0
      ],
      "type": "VEC2"
    },
    {
      "bufferView": 0,
      "componentType": 5125,
      "count": 94206,
      "type": "SCALAR"
    },
    {
      "bufferView": 2,
      "byteOffset": 723504,
      "componentType": 5126,
      "count": 53,
      "max": [
        1.128249168395996,
        1.8618505001068115,
        -0.2241138219833374
      ],
      "min": [
        -0.4017832279205322,
        0.8687105178833008,
        -0.2812638282775879
      ],
      "type": "VEC3"
    },
    {
      "bufferView": 2,
      "byteOffset": 724140,
      "componentType": 5126,
      "count": 53,
      "max": [
        1.0,
        1.0,
        -0.0
      ],
      "min": [
        -1.0,
        -1.0,
        -1.0
      ],
      "type": "VEC3"
    },
    {
      "bufferView": 1,
      "byteOffset": 241168,
      "componentType": 5126,
      "count": 53,
      "max": [
        0.9839164018630981,
        1.5576391220092773
      ],
      "min": [
        -1.0502320528030396,
        -0.4167102575302124
      ],
      "type": "VEC2"
    },
    {
      "bufferView": 0,
      "byteOffset": 376824,
      "componentType": 5125,
      "count": 87,
      "type": "SCALAR"
    },
    {
      "bufferView": 2,
      "byteOffset": 724776,
      "componentType": 5126,
      "count": 12,
      "max": [
        1.079198956489563,
        1.8286752700805664,
        -0.2241138219833374
      ],
      "min": [
        -0.3606705665588379,
        0.9558607935905457,
        -0.2320513278245926
      ],
      "type": "VEC3"
    },
    {
      "bufferView": 2,
      "byteOffset": 724920,
      "componentType": 5126,
      "count": 12,
      "max": [
        0.0,
        1.0,
        1.0
      ],
      "min": [
        -1.0,
        0.0,
        -0.0
      ],
      "type": "VEC3"
    },
    {
      "bufferView": 1,
      "byteOffset": 241592,
      "componentType": 5126,
      "count": 12,
      "max": [
        1.6122441291809082,
        1.008028268814087
      ],
      "min": [
        0.028763694688677788,
        0.0570184588432312
      ],
      "type": "VEC2"
    },
    {
      "bufferView": 0,
      "byteOffset": 377172,
      "componentType": 5125,
      "count": 18,
      "type": "SCALAR"
    },
    {
      "bufferView": 2,
      "byteOffset": 725064,
      "componentType": 5126,
      "count": 4,
      "max": [
        1.128249168395996,
        1.8618505001068115,
        -0.2241138219833374
      ],
      "min": [
        -0.4017832279205322,
        0.8687105178833008,
        -0.2241138219833374
      ],
      "type": "VEC3"
    },
    {
      "bufferView": 2,
      "byteOffset": 725112,
      "componentType": 5126,
      "count": 4,
      "max": [
        0.0,
        0.0,
        1.0
      ],
      "min": [
        0.0,
        0.0,
        1.0
      ],
      "type": "VEC3"
    },
    {
      "bufferView": 1,
      "byteOffset": 241688,
      "componentType": 5126,
      "count": 4,
      "max": [
        -1.0661128759384155,
        -4.008575916290283
      ],
      "min": [
        -1.9396151304244995,
        -5.029588222503662
      ],
      "type": "VEC2"
    },
    {
      "bufferView": 0,
      "byteOffset": 377244,
      "componentType": 5125,
      "count": 6,
      "type": "SCALAR"
    }
  ],
  "asset": {
    "extras": {
      "author": "arvintriyoga (https://sketchfab.com/arvintriyoga)",
      "license": "CC-BY-4.0 (http://creativecommons.org/licenses/by/4.0/)",
      "source": "https://sketchfab.com/3d-models/tv-monitor-9161689375cb4308baff9749b322d51b",
      "title": "TV monitor"
    },
    "generator": "Sketchfab-15.12.0",
    "version": "2.0"
  },
  "bufferViews": [
    {
      "buffer": 0,
      "byteLength": 377268,
      "name": "floatBufferViews",
      "target": 34963
    },
    {
      "buffer": 0,
      "byteLength": 241720,
      "byteOffset": 377268,
      "byteStride": 8,
      "name": "floatBufferViews",
      "target": 34962
    },
    {
      "buffer": 0,
      "byteLength": 725160,
      "byteOffset": 618988,
      "byteStride": 12,
      "name": "floatBufferViews",
      "target": 34962
    }
  ],
  "buffers": [
    {
      "byteLength": 1344148,
      "uri": "scene.bin"
    }
  ],
  "images": [
    {
      "uri": "textures/samsung_65_back_baseColor.jpeg"
    }
  ],
  "materials": [
    {
      "doubleSided": true,
      "name": "plastic_1",
      "pbrMetallicRoughness": {
        "baseColorFactor": [
          0.0511221,
          0.0511221,
          0.0511221,
          1.0
        ],
        "metallicFactor": 0.0,
        "roughnessFactor": 0.4
      }
    },
    {
      "doubleSided": true,
      "name": "samsung_65_back",
      "pbrMetallicRoughness": {
        "baseColorTexture": {
          "index": 0
        },
        "metallicFactor": 0.0,
        "roughnessFactor": 0.5
      }
    },
    {
      "doubleSided": true,
      "name": "samsung_65",
      "pbrMetallicRoughness": {
        "baseColorTexture": {
          "index": 0
        },
        "metallicFactor": 0.0,
        "roughnessFactor": 0.5
      }
    },
    {
      "doubleSided": true,
      "name": "material",
      "pbrMetallicRoughness": {
        "baseColorFactor": [
          0.00211606,
          0.0,
          0.0112453,
          1.0
        ],
        "metallicFactor": 0.454545,
        "roughnessFactor": 0.531818
      }
    }
  ],
  "meshes": [
    {
      "name": "Object_0",
      "primitives": [
        {
          "attributes": {
            "NORMAL": 1,
            "POSITION": 0,
            "TEXCOORD_0": 2
          },
          "indices": 3,
          "material": 0,
          "mode": 4
        }
      ]
    },
    {
      "name": "Object_1",
      "primitives": [
        {
          "attributes": {
            "NORMAL": 5,
            "POSITION": 4,
            "TEXCOORD_0": 6
          },
          "indices": 7,
          "material": 1,
          "mode": 4
        }
      ]
    },
    {
      "name": "Object_2",
      "primitives": [
        {
          "attributes": {
            "NORMAL": 9,
            "POSITION": 8,
            "TEXCOORD_0": 10
          },
          "indices": 11,
          "material": 2,
          "mode": 4
        }
      ]
    },
    {
      "name": "Object_3",
      "primitives": [
        {
          "attributes": {
            "NORMAL": 13,
            "POSITION": 12,
            "TEXCOORD_0": 14
          },
          "indices": 15,
          "material": 3,
          "mode": 4
        }
      ]
    }
  ],
  "nodes": [
    {
      "children": [
        1
      ],
      "matrix": [
        1.0,
        0.0,
        0.0,
        0.0,
        0.0,
        2.220446049250313e-16,
        -1.0,
        0.0,
        0.0,
        1.0,
        2.220446049250313e-16,
        0.0,
        0.0,
        0.0,
        0.0,
        1.0
      ],
      "name": "Sketchfab_model"
    },
    {
      "children": [
        2
      ],
      "name": "root"
    },
    {
      "children": [
        3
      ],
      "matrix": [
        1.0,
        0.0,
        0.0,
        0.0,
        0.0,
        2.220446049250313e-16,
        1.0,
        0.0,
        0.0,
        -1.0,
        2.220446049250313e-16,
        0.0,
        0.0,
        0.0,
        0.0,
        1.0
      ],
      "name": "GLTF_SceneRootNode"
    },
    {
      "children": [
        4,
        5,
        6,
        7
      ],
      "matrix": [
        -0.008314068516465545,
        0.0,
        -0.9999654375350697,
        0.0,
        0.0,
        1.0,
        0.0,
        0.0,
        0.9999654375350697,
        0.0,
        -0.008314068516465545,
        0.0,
        0.53483647108078,
        0.09000000357627869,
        0.4232625365257263,
        1.0
      ],
      "name": "G-__555717_0"
    },
    {
      "mesh": 0,
      "name": "Object_4"
    },
    {
      "mesh": 1,
      "name": "Object_5"
    },
    {
      "mesh": 2,
      "name": "Object_6"
    },
    {
      "mesh": 3,
      "name": "Object_7"
    }
  ],
  "samplers": [
    {
      "magFilter": 9729,
      "minFilter": 9987,
      "wrapS": 10497,
      "wrapT": 10497
    }
  ],
  "scene": 0,
  "scenes": [
    {
      "name": "Sketchfab_Scene",
      "nodes": [
        0
      ]
    }
  ],
  "textures": [
    {
      "sampler": 0,
      "source": 0
    }
  ]
}
